<svg id="Layer_1" data-name="Layer 1" xmlns="http://www.w3.org/2000/svg" viewBox="0 0 23.3 19.64">
    <title>flaticon_icon</title>
    <path id="Shape" d="M9.8,13h2.45l2.17-3.57H7.62L5.37,5.75H16.66l2.18-3.57H2.17a1.83,1.83,0,0,0-1.58.91,1.79,1.79,0,0,0,0,1.79L10.45,21a1.81,1.81,0,0,0,3.09,0l.57-.93Z" transform="translate(-0.36 -2.18)"/>
    <g id="Shape-2" data-name="Shape">
        <path d="M18.63,5.75h4.23l.54-.87a1.72,1.72,0,0,0,0-1.79,1.79,1.79,0,0,0-1.58-.91h-1Z" transform="translate(-0.36 -2.18)"/>
        <path d="M17.6,7.46,13,15l2.1,3.45,6.71-11Z" transform="translate(-0.36 -2.18)"/>
    </g>
</svg>