<?xml version="1.0" encoding="utf-8"?>
<!-- Generator: Adobe Illustrator 23.0.0, SVG Export Plug-In . SVG Version: 6.00 Build 0)  -->
<svg version="1.1" id="Layer_1" xmlns="http://www.w3.org/2000/svg" xmlns:xlink="http://www.w3.org/1999/xlink" x="0px" y="0px"
     viewBox="0 0 18 18" style="enable-background:new 0 0 18 18;" xml:space="preserve">
<path d="M17.4,5c-0.1-0.2-0.3-0.3-0.5-0.2c-0.2,0.1-0.3,0.3-0.2,0.5c0.3,0.9,0.5,1.9,0.5,2.9c0,4.2-3.1,7.7-7.1,8.2v-3.9
	c0.2,0,0.5-0.1,0.7-0.2v3.3c3.3-0.8,5.8-3.8,5.8-7.4c0-2.9-1.6-5.4-3.9-6.7c-0.2-0.1-0.4,0-0.5,0.2c-0.1,0.2,0,0.4,0.1,0.5
	c2.1,1.2,3.5,3.5,3.5,6.1c0,2.9-1.8,5.4-4.3,6.4v-2.9c0.4-0.1,0.8-0.6,0.8-1.1c0-0.4-0.2-0.8-0.5-1C12,7.2,13.1,7.8,13.1,7V6.6
	c0-1.2-2.7-5.1-4-5.2c-0.1,0-0.2,0-0.2,0c-1.3,0.1-4,4-4,5.2V7c0,0.8,1.1,0.1,1.4,2.6c-0.3,0.2-0.5,0.5-0.5,1c0,0.5,0.3,0.9,0.8,1.1
	v2.9c-2.5-1-4.3-3.5-4.3-6.4c0-2.6,1.4-4.9,3.5-6.1C5.9,2,5.9,1.8,5.8,1.6C5.8,1.4,5.5,1.3,5.3,1.4C3,2.7,1.5,5.3,1.5,8.1
	c0,3.6,2.5,6.6,5.8,7.4v-3.3c0.2,0.1,0.5,0.1,0.7,0.2v3.9c-4-0.5-7.1-4-7.1-8.2c0-1,0.2-2,0.5-2.9c0.1-0.2,0-0.4-0.2-0.5
	C0.9,4.7,0.7,4.8,0.6,5C0.3,5.9,0.1,7,0.1,8.1c0,4.9,3.8,8.8,8.6,9v-4.6c0.2,0,0.5,0,0.7,0v4.6c4.8-0.2,8.6-4.2,8.6-9
	C17.9,7,17.7,5.9,17.4,5z M11.2,9.9c0.4,0,0.7,0.3,0.7,0.7c0,0.4-0.3,0.7-0.7,0.7c-0.4,0-0.7-0.3-0.7-0.7
	C10.4,10.2,10.8,9.9,11.2,9.9z M6.8,11.4c-0.4,0-0.7-0.3-0.7-0.7c0-0.4,0.3-0.7,0.7-0.7c0.4,0,0.7,0.3,0.7,0.7
	C7.6,11,7.2,11.4,6.8,11.4z"/>
</svg>
