<?xml version="1.0" encoding="iso-8859-1"?>
<!-- Generator: Adobe Illustrator 19.0.0, SVG Export Plug-In . SVG Version: 6.00 Build 0)  -->
<svg version="1.1" id="Layer_1" xmlns="http://www.w3.org/2000/svg" xmlns:xlink="http://www.w3.org/1999/xlink" x="0px" y="0px"
     viewBox="0 0 512 512" style="enable-background:new 0 0 512 512;" xml:space="preserve">
<g>
	<g>
		<g>
			<path d="M503.467,187.733H409.6v-68.267H298.667c-4.71,0-8.533-3.823-8.533-8.533V0H8.533C3.823,0,0,3.823,0,8.533v494.933
				C0,508.177,3.823,512,8.533,512h392.533c4.71,0,8.533-3.823,8.533-8.533V409.6h93.867c4.71,0,8.533-3.823,8.533-8.533v-204.8
				C512,191.556,508.177,187.733,503.467,187.733z M494.933,392.533h-93.867H51.2V204.8h349.867h93.867V392.533z"/>
			<path d="M204.8,238.933c14.114,0,25.6,11.486,25.6,25.6c0,4.71,3.823,8.533,8.533,8.533s8.533-3.823,8.533-8.533
				c0-23.526-19.14-42.667-42.667-42.667c-23.526,0-42.667,19.14-42.667,42.667c0,23.526,19.14,42.667,42.667,42.667
				c14.114,0,25.6,11.486,25.6,25.6c0,14.114-11.486,25.6-25.6,25.6s-25.6-11.486-25.6-25.6c0-4.71-3.823-8.533-8.533-8.533
				s-8.533,3.823-8.533,8.533c0,23.526,19.14,42.667,42.667,42.667c23.526,0,42.667-19.14,42.667-42.667
				c0-23.526-19.14-42.667-42.667-42.667c-14.114,0-25.6-11.486-25.6-25.6S190.686,238.933,204.8,238.933z"/>
			<path d="M128,230.4c-4.71,0-8.533,3.823-8.533,8.533v102.4c0,9.412-7.654,17.067-17.067,17.067
				c-9.412,0-17.067-7.654-17.067-17.067c0-4.71-3.823-8.533-8.533-8.533s-8.533,3.823-8.533,8.533
				c0,18.825,15.309,34.133,34.133,34.133c18.825,0,34.133-15.309,34.133-34.133v-102.4C136.533,234.223,132.71,230.4,128,230.4z"/>
			<path d="M315.733,221.867H307.2c-18.825,0-34.133,15.309-34.133,34.133v85.333c0,18.825,15.309,34.133,34.133,34.133h8.533
				c18.825,0,34.133-15.309,34.133-34.133V256C349.867,237.175,334.558,221.867,315.733,221.867z M332.8,341.333
				c0,9.412-7.654,17.067-17.067,17.067H307.2c-9.412,0-17.067-7.654-17.067-17.067V256c0-9.412,7.654-17.067,17.067-17.067h8.533
				c9.412,0,17.067,7.654,17.067,17.067V341.333z"/>
			<path d="M381.646,222.196c-3.661,1.05-6.178,4.395-6.178,8.201V366.93c0,4.719,3.823,8.533,8.533,8.533
				c4.71,0,8.533-3.814,8.533-8.533V260.152l69.564,111.3c1.587,2.543,4.352,4.011,7.236,4.011c0.785,0,1.57-0.102,2.355-0.324
				c3.652-1.05,6.178-4.395,6.178-8.209V230.397c0-4.71-3.823-8.533-8.533-8.533s-8.533,3.823-8.533,8.533v106.786l-69.564-111.3
				C389.223,222.648,385.306,221.164,381.646,222.196z"/>
			<polygon points="307.2,5 307.2,102.399 404.599,102.399 			"/>
		</g>
	</g>
</g>
<g>
</g>
<g>
</g>
<g>
</g>
<g>
</g>
<g>
</g>
<g>
</g>
<g>
</g>
<g>
</g>
<g>
</g>
<g>
</g>
<g>
</g>
<g>
</g>
<g>
</g>
<g>
</g>
<g>
</g>
</svg>
