<?xml version="1.0" encoding="utf-8"?>
<!-- Generator: Adobe Illustrator 23.0.0, SVG Export Plug-In . SVG Version: 6.00 Build 0)  -->
<svg version="1.1" id="Capa_1" xmlns="http://www.w3.org/2000/svg" xmlns:xlink="http://www.w3.org/1999/xlink" x="0px" y="0px"
     viewBox="0 0 512 512" style="enable-background:new 0 0 512 512;" xml:space="preserve">
<style type="text/css">
	.st0{fill:#000000;}
	.st1{fill:url(#SVGID_1_);}
</style>
<g>
	<path class="st0" d="M510,495.2c-8.8-12.4-23-22.6-38-33.5C455.8,450,439.2,438,430.9,424c31.6-6.6,71.6-18.6,73.5-19.1
		c3.4-1,6.1-3.7,7.2-7.2c1-3.4,0.3-7.2-2.1-9.9c-2.1-2.4-50.5-59.3-128.7-87.1c-3.4-6.9-7.3-15.8-11.8-26
		C337.6,202.4,272.3,52.5,99.8,32.4C86.1,23.1,50.1,0,32,0C9.6,0,0,9.6,0,32c0,10.9,8.9,23.7,23.4,43.6c7.1,9.7,18.9,26,19.3,31.1
		c0,17.5,20.3,74,40.6,98.2c-0.6,1.2-1.2,2.5-1.7,3.7c-9,19-17.5,37-17.5,79.5c0,56,26.8,85.3,53.3,85.3c16.4,0,24.6-18.7,28.6-40.5
		c14.6,29.7,38.5,68.3,71.9,91.9c4.8,3.4,11.5,2.2,14.9-2.6c3.4-4.8,2.3-11.5-2.6-14.9c-53-37.4-81.1-121.7-81.4-122.6
		c-1.6-5-6.7-8.1-11.8-7.2c-5.2,0.8-9,5.3-9,10.5c0,29.3-5.6,60.5-10.7,64c-15.4,0-32-24.5-32-64c0-37.7,6.8-52.1,15.5-70.4
		c1.6-3.4,3.3-6.9,4.9-10.6c1.9-4.3,0.8-9.3-2.8-12.4c-16.4-14.2-39-73.7-39-87.9c0-10.9-8.9-23.7-23.4-43.6
		C33.5,53.3,21.7,37,21.3,32c0-10.7,0-10.7,10.7-10.7c8.6,0,36.8,15.6,58,30.1c1.4,1,3.1,1.6,4.9,1.8
		C257,70.9,317.2,209,349.5,283.2c5.4,12.5,10.2,23.3,14.4,31.2c1.3,2.4,3.4,4.2,6,5.1c53.2,18,92.9,51.8,111.5,69.9
		c-18.2,5.1-47.2,12.8-67.2,16.2c-2.9,0.5-5.5,2.2-7.2,4.7c-1.6,2.5-2.2,5.5-1.4,8.4c6.6,26.3,31.7,44.4,53.9,60.4
		c13.6,9.8,26.4,19,33.1,28.5c2.1,2.9,5.4,4.5,8.7,4.5c2.1,0,4.3-0.6,6.2-2C512.3,506.6,513.4,500,510,495.2z"/>
	<path class="st0" d="M96,85.3c0,5.9,4.8,10.7,10.7,10.7c5.9,0,10.7,4.8,10.7,10.7c0,5.9,4.8,10.7,10.7,10.7
		c5.9,0,10.7-4.8,10.7-10.7c0-17.6-14.4-32-32-32C100.8,74.7,96,79.4,96,85.3z"/>
</g>
<linearGradient id="SVGID_1_" gradientUnits="userSpaceOnUse" x1="186.4676" y1="-387.2568" x2="214.8507" y2="-374.0237" gradientTransform="matrix(21.3333 0 0 21.3333 -4026.0222 8385.377)">
	<stop  offset="0" style="stop-color:#FFFFFF;stop-opacity:0.2"/>
	<stop  offset="1" style="stop-color:#FFFFFF;stop-opacity:0"/>
</linearGradient>
<path class="st1" d="M510,495.2c-8.8-12.4-23-22.6-38-33.5C455.8,450,439.2,438,430.9,424c31.6-6.6,71.6-18.6,73.5-19.1
	c3.4-1,6.1-3.7,7.2-7.2c1-3.4,0.3-7.2-2.1-9.9c-2.1-2.4-50.5-59.3-128.7-87.1c-3.4-6.9-7.3-15.8-11.8-26
	C337.6,202.4,272.3,52.5,99.8,32.4C86.1,23.1,50.1,0,32,0C9.6,0,0,9.6,0,32c0,10.9,8.9,23.7,23.4,43.6c7.1,9.7,18.9,26,19.3,31.1
	c0,17.5,20.3,74,40.6,98.2c-0.6,1.2-1.2,2.5-1.7,3.7c-9,19-17.5,37-17.5,79.5c0,56,26.8,85.3,53.3,85.3c16.4,0,24.6-18.7,28.6-40.5
	c14.6,29.7,38.5,68.3,71.9,91.9c4.8,3.4,11.5,2.2,14.9-2.6c3.4-4.8,2.3-11.5-2.6-14.9c-53-37.4-81.1-121.7-81.4-122.6
	c-1.6-5-6.7-8.1-11.8-7.2c-5.2,0.8-9,5.3-9,10.5c0,29.3-5.6,60.5-10.7,64c-15.4,0-32-24.5-32-64c0-37.7,6.8-52.1,15.5-70.4
	c1.6-3.4,3.3-6.9,4.9-10.6c1.9-4.3,0.8-9.3-2.8-12.4c-16.4-14.2-39-73.7-39-87.9c0-10.9-8.9-23.7-23.4-43.6
	C33.5,53.3,21.7,37,21.3,32c0-10.7,0-10.7,10.7-10.7c8.6,0,36.8,15.6,58,30.1c1.4,1,3.1,1.6,4.9,1.8C257,70.9,317.2,209,349.5,283.2
	c5.4,12.5,10.2,23.3,14.4,31.2c1.3,2.4,3.4,4.2,6,5.1c53.2,18,92.9,51.8,111.5,69.9c-18.2,5.1-47.2,12.8-67.2,16.2
	c-2.9,0.5-5.5,2.2-7.2,4.7c-1.6,2.5-2.2,5.5-1.4,8.4c6.6,26.3,31.7,44.4,53.9,60.4c13.6,9.8,26.4,19,33.1,28.5
	c2.1,2.9,5.4,4.5,8.7,4.5c2.1,0,4.3-0.6,6.2-2C512.3,506.6,513.4,500,510,495.2z M96,85.3c0,5.9,4.8,10.7,10.7,10.7
	c5.9,0,10.7,4.8,10.7,10.7c0,5.9,4.8,10.7,10.7,10.7c5.9,0,10.7-4.8,10.7-10.7c0-17.6-14.4-32-32-32C100.8,74.7,96,79.4,96,85.3z"/>
</svg>
